inDegrees=yes
name=ik_Xsens
DataType=double
version=3
OpenSimVersion=4.4-2022-07-23-0e9fedc
endheader
time	pelvis_tilt	pelvis_list	pelvis_rotation	pelvis_tx	pelvis_ty	pelvis_tz	hip_flexion_r	hip_adduction_r	hip_rotation_r	knee_angle_r	knee_angle_r_beta	ankle_angle_r	subtalar_angle_r	mtp_angle_r	hip_flexion_l	hip_adduction_l	hip_rotation_l	knee_angle_l	knee_angle_l_beta	ankle_angle_l	subtalar_angle_l	mtp_angle_l	lumbar_extension	lumbar_bending	lumbar_rotation	arm_flex_r	arm_add_r	arm_rot_r	elbow_flex_r	pro_sup_r	wrist_flex_r	wrist_dev_r	arm_flex_l	arm_add_l	arm_rot_l	elbow_flex_l	pro_sup_l	wrist_flex_l	wrist_dev_l
0	0	0	0	0	0.93	0	0	0	0	0	0	0	0	0	0	0	0	0	0	0	0	0	0	0	0	0	0	0	0	0	0	0	0	0	0	0	0	0	0
0.01666666666666667	0	0	0	0	0.93	0	4.594144125593695e-49	0	0	2.426570649309934e-20	-9.310846343146831e-38	0	0	0	4.594144125593695e-49	0	0	2.426570649309934e-20	-9.310846343146831e-38	0	0	0	0	0	0	0.00554599228884434	0.01627018830504669	-0.03239163742217914	0.01442067026461886	0.05103541653263061	0	0	0.01726883381180827	-0.04554631642283503	0.03542721242851902	0.001588914507881403	-0.01530201449790061	0	0
0.03333333333333333	0	0	0	0	0.93	0	4.594144125593695e-49	0	0	2.426570649309934e-20	-9.310846343146831e-38	0	0	0	4.594144125593695e-49	0	0	2.426570649309934e-20	-9.310846343146831e-38	0	0	0	0	0	0	0.005067996874593954	0.04016462276874101	-0.09604949136392371	0.05454400911307979	0.1377543195036298	0	0	0.03553046406370986	-0.09844758566122684	0.1266757844715314	0.01729674229652982	-0.08644541163677741	0	0
0.05	0	0	0	0	0.93	0	4.594144125593695e-49	0	0	2.426570649309934e-20	-9.310846343146831e-38	0	0	0	4.594144125593695e-49	0	0	2.426570649309934e-20	-9.310846343146831e-38	0	0	0	0	0	0	0.00657446486430959	0.07116336925793942	-0.158892076523951	0.08862993512851385	0.2211945577019218	0	0	0.05207228581194827	-0.1596868845956714	0.199822764963779	0.0401823498507908	-0.1389409156594782	0	0
0.06666666666666667	0	0	0	0	0.93	0	0	0	0	0	-5.877471754111438e-39	0	0	0	0	0	0	0	-5.877471754111438e-39	0	0	0	0	0	0	0.01673329978264354	0.1165381907463774	-0.1999152683880443	0.1201013089451892	0.2650709450467359	0	0	0.07764297258476979	-0.2259120329780524	0.2581599123501073	0.05435025044877088	-0.1416922324144676	0	0
0.08333333333333333	-3.77239711209445e-24	-1.372564545567434e-20	-4.997488149023385e-24	-4.939343064871246e-24	0.93	8.433636470564353e-26	6.5434392464189e-24	-2.82190071454709e-24	-1.064724719172238e-16	5.063936902325642e-05	8.838237210101914e-07	-6.772206538338774e-09	-8.920215619582768e-07	1.742535838344174e-11	6.504954216239775e-18	-2.645739937677243e-16	6.429414606656082e-16	5.066004604834606e-05	8.841846031466435e-07	1.349902994263829e-08	4.77773211076032e-07	5.446488834254712e-14	-8.327201147620808e-14	7.500300741105075e-15	3.466274362821454e-14	0.03197289234041268	0.1672257353504751	-0.2233184942163418	0.1438320050403464	0.271303752630739	2.036276945062488e-14	8.86197959027187e-16	0.1025210779948949	-0.2806632064119837	0.3102738752498591	0.06044000397337678	-0.140852340944191	-5.824242284627137e-16	-8.920305377966832e-20
0.1	0	0	0	0	0.93	0	0	0	0	0	-2.350988701644575e-38	0	0	0	0	0	0	0	0	0	0	0	0	0	0	0.05076969564684146	0.2269563474562066	-0.2306140663766975	0.1621418132326388	0.2720562487221275	0	0	0.1276580533155586	-0.3339730337922603	0.3594952237259839	0.06945421988167236	-0.1577891543471422	0	0
0.1166666666666667	0	0	0	0	0.93	0	0	0	0	0	2.938735877055719e-38	0	0	0	0	0	0	0	-4.114230227878006e-38	0	0	0	0	0	0	0.07220863065251092	0.294285007754176	-0.2271460951847206	0.1757545632451913	0.2797889254867619	0	0	0.1550475299594759	-0.3819979321644547	0.4092280127755811	0.08032554951231208	-0.1790156809752206	0	0
0.1333333333333333	0	0	0	0	0.93	0	0	0	0	0	-1.763241526233431e-38	0	0	0	0	0	0	0	-4.114230227878006e-38	0	0	0	0	0	0	0.09816070461266792	0.3724142662613354	-0.2316165745634327	0.1832380834570402	0.2563240935077046	0	0	0.1843416418453972	-0.4215215176255345	0.4598165849276629	0.09131041866640513	-0.2019017490505222	0	0
0.15	0	0	0	0	0.93	0	4.594144125593695e-49	0	0	2.426570649309934e-20	-1.763241526233431e-38	0	0	0	4.594144125593695e-49	0	0	2.426570649309934e-20	-4.114230227878006e-38	0	0	0	0	0	0	0.1219976489684602	0.4467359868722684	-0.2390528316039773	0.1859706085108732	0.2150340604483968	0	0	0.207715451084177	-0.4533303552969407	0.503884534490659	0.1036136609769058	-0.2153261281784574	0	0
